<svg width="2980" height="270" viewBox="0 0 2980 270" fill="none" xmlns="http://www.w3.org/2000/svg">
<g filter="url(#filter0_d_1_321)">
<path d="M44.5013 47.2885L20 32V261.687H44.5013H167.008H314.016H461.024H608.032H755.04H902.048H1049.06H1196.06H1343.07H1465.58L1514.42 262H1636.93H1783.94H1930.94H2077.95H2224.96H2371.97H2518.98H2665.98H2812.99H2935.5H2960V32.3129L2935.5 47.6015C2911 63.1771 2861.99 93.3236 2812.99 101.219C2763.99 109.115 2714.99 93.3236 2665.98 93.5389C2616.98 93.3236 2567.98 109.115 2518.98 108.899C2469.97 109.115 2420.97 93.3236 2371.97 105.023C2322.97 116.292 2273.96 155.052 2224.96 170.125C2175.96 185.198 2126.95 178.021 2077.95 173.929C2028.95 170.125 1979.95 170.125 1930.94 154.837C1881.94 139.261 1832.94 109.115 1783.94 101.219C1734.93 93.3236 1685.93 109.115 1636.93 112.703C1587.92 116.292 1538.92 109.115 1514.42 105.023L1501.44 102.827C1493.91 101.555 1486.24 101.503 1478.7 102.673L1465.58 104.71C1441.08 108.802 1392.08 115.979 1343.07 112.39C1294.07 108.802 1245.07 93.0106 1196.06 100.906C1147.06 108.802 1098.06 138.948 1049.06 154.524C1000.05 169.812 951.051 169.812 902.048 173.616C853.046 177.708 804.043 184.885 755.04 169.812C706.038 154.739 657.035 115.979 608.032 104.71C559.03 93.0106 510.027 108.802 461.024 108.586C412.021 108.802 363.019 93.0106 314.016 93.226C265.013 93.0106 216.011 108.802 167.008 100.906C118.005 93.0106 69.0027 62.8642 44.5013 47.2885Z" fill="#7A0BC0"/>
</g>
<defs>
<filter id="filter0_d_1_321" x="0" y="0" width="2980" height="270" filterUnits="userSpaceOnUse" color-interpolation-filters="sRGB">
<feFlood flood-opacity="0" result="BackgroundImageFix"/>
<feColorMatrix in="SourceAlpha" type="matrix" values="0 0 0 0 0 0 0 0 0 0 0 0 0 0 0 0 0 0 127 0" result="hardAlpha"/>
<feOffset dy="-12"/>
<feGaussianBlur stdDeviation="10"/>
<feComposite in2="hardAlpha" operator="out"/>
<feColorMatrix type="matrix" values="0 0 0 0 0 0 0 0 0 0 0 0 0 0 0 0 0 0 0.25 0"/>
<feBlend mode="normal" in2="BackgroundImageFix" result="effect1_dropShadow_1_321"/>
<feBlend mode="normal" in="SourceGraphic" in2="effect1_dropShadow_1_321" result="shape"/>
</filter>
</defs>
</svg>
